<svg xmlns="http://www.w3.org/2000/svg" viewBox="0 0 96 96" role="img" aria-labelledby="title description">
  <title id="title">auroLab</title>
  <desc id="description">Monograma aL en tipografía Quintessential</desc>
  <path fill="#c9c0ff" transform="translate(12.3 73.5) scale(.034 -.034)" d="M1030 260Q1021 246 1005 226.5Q989 207 973 188Q955 166 934 143Q908 111 878 81Q848 51 818.5 27.5Q789 4 761-10Q733-24 711-23Q669-21 653 28.5Q637 78 637 172Q637 222 640 280Q643 338 649 410Q627 375 607 346Q587 317 571 295Q553 269 535 248Q482 183 432.5 133Q383 83 341.5 49Q300 15 268.5-3Q237-21 219-23Q201-25 175.5-11Q150 3 127 43Q104 83 87.5 155Q71 227 72 342Q73 457 96.5 544.5Q120 632 157.5 697.5Q195 763 241 810.5Q287 858 332 893Q425 964 510.5 1006.5Q596 1049 678 1051Q705 1052 731 1050Q754 1048 780.5 1043.5Q807 1039 831 1030L860 1053Q854 1025 847.5 977Q841 929 835 869Q829 809 823 741Q817 673 812.5 604.5Q808 536 804 471.5Q800 407 797.5 354Q795 301 794.5 264Q794 227 795 213Q800 156 821.5 135Q843 114 881 139Q896 151 918 177Q937 199 964.5 237.5Q992 276 1030 338ZM688 897Q593 909 532 909Q467 909 419 888Q371 867 337 831.5Q303 796 281 749.5Q259 703 246.5 651Q234 599 229.5 545Q225 491 225 442Q225 425 227 396Q229 367 234.5 334Q240 301 248.5 267Q257 233 270.5 205.5Q284 178 302 160.5Q320 143 344 143Q370 143 407.5 171.5Q445 200 498 268Q529 310 560 369Q586 419 615.5 492Q645 565 668 662Z" />
  <path fill="#8a6cff" transform="translate(46.64 73.5) scale(.034 -.034)" d="M578 1481Q531 1450 493.5 1428.5Q456 1407 422 1393Q417 1212 413.5 1069Q410 926 407.5 815.5Q405 705 403.5 624.5Q402 544 401 487Q398 354 399 305Q398 268 391 234Q385 205 372 172.5Q359 140 336 117Q396 115 448.5 115Q501 115 549 115Q686 115 775 119Q864 123 917 128.5Q970 134 992 138.5Q1014 143 1018 145Q965 109 930 83Q895 57 867.5 40.5Q840 24 813.5 16Q787 8 752 8H598Q533 8 457 7.5Q381 7 312 5.5Q243 4 188.5 .5Q134 -3 111 -8Q139 16 162 44Q185 72 201.5 113Q218 154 227 211.5Q236 269 236 350V1360Q205 1357 161 1352Q117 1347 61 1339Q115 1383 158.5 1406Q202 1429 233 1440Q269 1452 297 1454Q332 1453 374.5 1455Q417 1457 456.5 1460.5Q496 1464 529 1469.5Q562 1475 578 1481ZM1018 145V146Q1019 147 1020 147Z" />
</svg>
